<svg viewBox="0 0 48 48" xmlns="http://www.w3.org/2000/svg" fill="none" stroke="#8b5cf6" stroke-width="2" stroke-linecap="round" stroke-linejoin="round">
  <!-- Open book -->
  <path d="M24 12c-4-4-12-4-14 0v26c2-3 10-3 14 0"/>
  <path d="M24 12c4-4 12-4 14 0v26c-2-3-10-3-14 0"/>
  <!-- Geometric pattern above (Islamic star) -->
  <polygon points="24,4 26,8 30,6 28,10 32,10 28,13 30,16 24,14 18,16 20,13 16,10 20,10 18,6 22,8" stroke-width="1.2" opacity="0.5"/>
  <!-- Page lines -->
  <line x1="14" y1="20" x2="22" y2="20" stroke-width="1" opacity="0.4"/>
  <line x1="14" y1="24" x2="22" y2="24" stroke-width="1" opacity="0.4"/>
  <line x1="14" y1="28" x2="22" y2="28" stroke-width="1" opacity="0.4"/>
  <line x1="26" y1="20" x2="34" y2="20" stroke-width="1" opacity="0.4"/>
  <line x1="26" y1="24" x2="34" y2="24" stroke-width="1" opacity="0.4"/>
  <line x1="26" y1="28" x2="34" y2="28" stroke-width="1" opacity="0.4"/>
</svg>
