<svg viewBox="0 0 48 48" xmlns="http://www.w3.org/2000/svg" fill="none" stroke="#ec4899" stroke-width="2" stroke-linecap="round" stroke-linejoin="round">
  <!-- Central figure -->
  <circle cx="24" cy="14" r="4"/>
  <path d="M18 26a6 6 0 0 1 12 0"/>
  <!-- Left figure -->
  <circle cx="10" cy="20" r="3"/>
  <path d="M6 30a4 4 0 0 1 8 0"/>
  <!-- Right figure -->
  <circle cx="38" cy="20" r="3"/>
  <path d="M34 30a4 4 0 0 1 8 0"/>
  <!-- Network lines -->
  <line x1="16" y1="16" x2="13" y2="19" stroke-dasharray="2,2" opacity="0.5"/>
  <line x1="32" y1="16" x2="35" y2="19" stroke-dasharray="2,2" opacity="0.5"/>
  <line x1="14" y1="24" x2="34" y2="24" stroke-dasharray="2,2" opacity="0.3"/>
  <!-- Muqaddimah scroll -->
  <rect x="18" y="32" width="12" height="10" rx="1" opacity="0.3"/>
  <line x1="20" y1="35" x2="28" y2="35" stroke-width="1" opacity="0.4"/>
  <line x1="20" y1="38" x2="28" y2="38" stroke-width="1" opacity="0.4"/>
</svg>
