<svg viewBox="0 0 48 48" xmlns="http://www.w3.org/2000/svg" fill="none" stroke="#a855f7" stroke-width="2" stroke-linecap="round" stroke-linejoin="round">
  <!-- Building with dome -->
  <rect x="10" y="24" width="28" height="18" rx="1"/>
  <path d="M10 24a14 14 0 0 1 28 0"/>
  <!-- Overlapping scrolls -->
  <rect x="14" y="28" width="8" height="10" rx="2"/>
  <rect x="26" y="28" width="8" height="10" rx="2"/>
  <!-- Script lines -->
  <line x1="16" y1="31" x2="20" y2="31" stroke-width="1" opacity="0.5"/>
  <line x1="16" y1="34" x2="20" y2="34" stroke-width="1" opacity="0.5"/>
  <line x1="28" y1="31" x2="32" y2="31" stroke-width="1" opacity="0.5"/>
  <line x1="28" y1="34" x2="32" y2="34" stroke-width="1" opacity="0.5"/>
  <!-- Bidirectional arrow -->
  <line x1="22" y1="33" x2="26" y2="33"/>
  <polyline points="24.5,31 26,33 24.5,35" stroke-width="1" fill="none"/>
  <polyline points="23.5,31 22,33 23.5,35" stroke-width="1" fill="none"/>
  <!-- Finial -->
  <line x1="24" y1="10" x2="24" y2="6"/>
  <circle cx="24" cy="5" r="1.5" fill="#a855f7" opacity="0.3"/>
</svg>
