<svg viewBox="0 0 48 48" xmlns="http://www.w3.org/2000/svg" fill="none" stroke="#c8a45e" stroke-width="2" stroke-linecap="round" stroke-linejoin="round">
  <!-- Mihrab arch -->
  <path d="M14 42V20a10 10 0 0 1 20 0v22"/>
  <path d="M18 42V22a6 6 0 0 1 12 0v20" opacity="0.4"/>
  <!-- Inner pointed arch -->
  <path d="M20 42V24c0-3 4-6 4-6s4 3 4 6v18" stroke-width="1.5"/>
  <!-- Muqarnas detail -->
  <path d="M16 18c2-1 3-3 4-3s2 2 4 3s3 3 4 3s2-2 4-3" stroke-width="1" opacity="0.5"/>
  <!-- Lamp (Qur'anic light verse) -->
  <ellipse cx="24" cy="30" rx="2.5" ry="3" fill="#c8a45e" opacity="0.2"/>
  <line x1="24" y1="27" x2="24" y2="24"/>
  <circle cx="24" cy="30" r="1" fill="#c8a45e" opacity="0.5"/>
</svg>
