<svg viewBox="0 0 48 48" xmlns="http://www.w3.org/2000/svg" fill="none" stroke="#14b8a6" stroke-width="2" stroke-linecap="round" stroke-linejoin="round">
  <!-- Leaf -->
  <path d="M12 38C12 20 24 8 38 6c0 14-10 26-26 32z"/>
  <path d="M12 38C18 28 28 18 38 6" stroke-width="1.5"/>
  <!-- Leaf veins -->
  <path d="M18 32c4-4 8-6 12-8" stroke-width="1" opacity="0.4"/>
  <path d="M22 34c3-4 6-6 10-9" stroke-width="1" opacity="0.4"/>
  <!-- Small bird silhouette -->
  <path d="M8 12c2-2 4-1 5 0 1-1 3-2 5 0" stroke-width="1.5"/>
  <!-- Dots (classification) -->
  <circle cx="34" cy="36" r="1.5" fill="#14b8a6" opacity="0.4"/>
  <circle cx="38" cy="40" r="1.5" fill="#14b8a6" opacity="0.3"/>
  <circle cx="42" cy="36" r="1.5" fill="#14b8a6" opacity="0.2"/>
</svg>
